{
  "title": "The Lone Ranger 2013 TS XViD UNiQUE",
  "uid": 8659823,
  "size": 1562468691,
  "categoryP": "video",
  "categoryS": "movies",
  "magnet": "?xt=urn:btih:ced0fb44ae89da97bd3b2122e0727a197ac9394a&amp;dn=The+Lone+Ranger+2013+TS+XViD+UNiQUE&amp;tr=udp%3A%2F%2Ftracker.openbittorrent.com%3A80&amp;tr=udp%3A%2F%2Fopen.demonii.com%3A1337&amp;tr=udp%3A%2F%2Ftracker.coppersurfer.tk%3A6969&amp;tr=udp%3A%2F%2Fexodus.desync.com%3A6969",
  "seeders": 80,
  "leechers": 18,
  "uploader": "xxxlavalxxx",
  "files": -1,
  "time": 1373298640,
  "description": " &lt;a href=&quot;http://www.imdb.com/title/tt1210819/&quot; rel=&quot;nofollow&quot; target=&quot;_NEW&quot;&gt;http://www.imdb.com/title/tt1210819/&lt;/a&gt;\n\n\n\n Native American warrior Tonto recounts the untold tales that transformed John Reid, a man of the law, into a legend of justice.\n\n\n\n Director:\n Gore Verbinski\n\n Writers:\n Justin Haythe (screenplay), Ted Elliott (screenplay)\n\n Stars:\n Johnny Depp, Armie Hammer, William Fichtner\n\n Genres:\n Action | Adventure | Western\n\n Country:\n USA\n\n Language:\n English\n\n\n\n Format : AVI\n Format/Info : Audio Video Interleave\n File size : 1.45 GiB\n Duration : 2h 20mn\n Overall bit rate : 1 473 Kbps\n Writing application : VirtualDubMod 1.5.10.2 (build 2540/release)\n Writing library : VirtualDubMod build 2540/release\n\n Video\n ID : 0\n Format : MPEG-4 Visual\n Format profile : Advanced Simple@L5\n Format settings, BVOP : 2\n Format settings, QPel : No\n Format settings, GMC : No warppoints\n Format settings, Matrix : Default (H.263)\n Muxing mode : Packed bitstream\n Codec ID : XVID\n Codec ID/Hint : XviD\n Duration : 2h 20mn\n Bit rate : 1 336 Kbps\n Width : 720 pixels\n Height : 338 pixels\n Display aspect ratio : 2.130\n Frame rate : 24.000 fps\n Color space : YUV\n Chroma subsampling : 4:2:0\n Bit depth : 8 bits\n Scan type : Progressive\n Compression mode : Lossy\n Bits/(Pixel*Frame) : 0.229\n Stream size : 1.31 GiB (91%)\n Writing library : XviD 64\n\n Audio\n ID : 1\n Format : MPEG Audio\n Format version : Version 1\n Format profile : Layer 3\n Codec ID : 55\n Codec ID/Hint : MP3\n Duration : 2h 20mn\n Bit rate mode : Constant\n Bit rate : 128 Kbps\n Channel(s) : 2 channels\n Sampling rate : 44.1 KHz\n Compression mode : Lossy\n Stream size : 129 MiB (9%)\n Alignment : Split accross interleaves\n Interleave, duration : 42 ms (1.00 video frame)\n Interleave, preload duration : 500 ms\n\n\n\n Source Used The.Lone.Rangers.2013.iTALiAN.MD.HDCAM.XviD-RAVERS / A FRiEND - Thanks\n\n\n\n\n\n    &lt;a href=&quot;\thttp://addpix.net/viewer.php?file=15764933135114655826.jpg&quot; rel=&quot;nofollow&quot; target=&quot;_NEW&quot;&gt;\thttp://addpix.net/viewer.php?file=15764933135114655826.jpg&lt;/a&gt;\n    &lt;a href=&quot;\thttp://addpix.net/viewer.php?file=79485050609697416025.jpg&quot; rel=&quot;nofollow&quot; target=&quot;_NEW&quot;&gt;\thttp://addpix.net/viewer.php?file=79485050609697416025.jpg&lt;/a&gt;\n    &lt;a href=&quot;\thttp://addpix.net/viewer.php?file=17973642402607703648.jpg&quot; rel=&quot;nofollow&quot; target=&quot;_NEW&quot;&gt;\thttp://addpix.net/viewer.php?file=17973642402607703648.jpg&lt;/a&gt;\n    ",
  "parsed": {
    "xt": "urn:btih:ced0fb44ae89da97bd3b2122e0727a197ac9394a",
    "dn": "The Lone Ranger 2013 TS XViD UNiQUE",
    "tr": [
      "udp://exodus.desync.com:6969",
      "udp://open.demonii.com:1337",
      "udp://tracker.coppersurfer.tk:6969",
      "udp://tracker.openbittorrent.com:80"
    ],
    "infoHash": "ced0fb44ae89da97bd3b2122e0727a197ac9394a",
    "infoHashBuffer": {
      "type": "Buffer",
      "data": [
        206,
        208,
        251,
        68,
        174,
        137,
        218,
        151,
        189,
        59,
        33,
        34,
        224,
        114,
        122,
        25,
        122,
        201,
        57,
        74
      ]
    },
    "name": "The Lone Ranger 2013 TS XViD UNiQUE",
    "announce": [
      "udp://exodus.desync.com:6969",
      "udp://open.demonii.com:1337",
      "udp://tracker.coppersurfer.tk:6969",
      "udp://tracker.openbittorrent.com:80"
    ],
    "urlList": []
  },
  "previous": 47,
  "peers": 1,
  "last_updated": "2016-12-27T13:34:01.768Z"
}